Coordinates
version=1
nRows=7
nColumns=40
inDegrees=yes

Units are S.I. units (second, meters, Newtons, ...)
If the header above contains a line with 'inDegrees', this indicates whether rotational values are in degrees (yes) or radians (no).

endheader
time	pelvis_tilt	pelvis_list	pelvis_rotation	pelvis_tx	pelvis_ty	pelvis_tz	hip_flexion_r	hip_adduction_r	hip_rotation_r	knee_angle_r	knee_angle_r_beta	ankle_angle_r	subtalar_angle_r	mtp_angle_r	hip_flexion_l	hip_adduction_l	hip_rotation_l	knee_angle_l	knee_angle_l_beta	ankle_angle_l	subtalar_angle_l	mtp_angle_l	lumbar_extension	lumbar_bending	lumbar_rotation	arm_flex_r	arm_add_r	arm_rot_r	elbow_flex_r	pro_sup_r	wrist_flex_r	wrist_dev_r	arm_flex_l	arm_add_l	arm_rot_l	elbow_flex_l	pro_sup_l	wrist_flex_l	wrist_dev_l
      9.87500000	    -89.60798734	     89.90148634	    -89.60699404	      0.34907004	      0.92920304	      0.70164481	     38.04026322	    -49.82167173	    -31.86021337	     39.06300497	      0.68177805	    -19.00578331	      0.00000000	      0.00000000	     39.38035555	    -49.68807320	    -29.69124721	     42.03338097	      0.73362089	    -15.76007437	      0.00000000	      0.00000000	    -79.09690867	     -4.80991996	      2.39590818	      0.00000000	    -15.00000018	      0.00000000	     75.00017585	     45.00000026	      0.00000000	      0.00000000	      0.00000000	    -15.00000018	      0.00000000	     75.00017585	     45.00000026	      0.00000000	      0.00000000
      9.88000000	    -89.62739683	     89.90170948	    -89.62644611	      0.34930355	      0.92914022	      0.70144662	     38.09895647	    -49.82718051	    -31.85479192	     39.04952595	      0.68154280	    -19.08928079	      0.00000000	      0.00000000	     39.45081698	    -49.69197020	    -29.54044353	     42.09362787	      0.73467240	    -15.73224139	      0.00000000	      0.00000000	    -78.99605768	     -4.77519868	      2.33500754	      0.00000000	    -15.00000018	      0.00000000	     75.00017585	     45.00000026	      0.00000000	      0.00000000	      0.00000000	    -15.00000018	      0.00000000	     75.00017585	     45.00000026	      0.00000000	      0.00000000
      9.88500000	    -89.64523879	     89.90224236	    -89.64411369	      0.34949650	      0.92906352	      0.70117554	     38.18465420	    -49.82936359	    -31.79030757	     39.05754706	      0.68168279	    -19.13238411	      0.00000000	      0.00000000	     39.50613586	    -49.69292273	    -29.40777027	     42.13664103	      0.73542312	    -15.69003787	      0.00000000	      0.00000000	    -78.90906027	     -4.75389145	      2.28074113	      0.00000000	    -15.00000018	      0.00000000	     75.00017585	     45.00000026	      0.00000000	      0.00000000	      0.00000000	    -15.00000018	      0.00000000	     75.00017585	     45.00000026	      0.00000000	      0.00000000
      9.89000000	    -89.65999013	     89.90368624	    -89.65878177	      0.34971943	      0.92901187	      0.70085988	     38.26168909	    -49.83361137	    -31.71997079	     39.06048228	      0.68173402	    -19.17514811	      0.00000000	      0.00000000	     39.59576436	    -49.69814939	    -29.23530422	     42.20897693	      0.73668562	    -15.62000179	      0.00000000	      0.00000000	    -78.82265368	     -4.72985395	      2.22844044	      0.00000000	    -15.00000017	      0.00000000	     75.00017585	     45.00000026	      0.00000000	      0.00000000	      0.00000000	    -15.00000017	      0.00000000	     75.00017585	     45.00000026	      0.00000000	      0.00000000
      9.89500000	    -89.67781157	     89.90315706	    -89.67722347	      0.34995509	      0.92892520	      0.70052785	     38.34677446	    -49.83914942	    -31.63912125	     39.07635970	      0.68201114	    -19.19727339	      0.00000000	      0.00000000	     39.66780646	    -49.70105750	    -29.10199777	     42.28115210	      0.73794532	    -15.51958815	      0.00000000	      0.00000000	    -78.73654827	     -4.69770053	      2.18244092	      0.00000000	    -15.00000017	      0.00000000	     75.00017585	     45.00000026	      0.00000000	      0.00000000	      0.00000000	    -15.00000017	      0.00000000	     75.00017585	     45.00000026	      0.00000000	      0.00000000
      9.90000000	    -89.68910269	     89.90377689	    -89.68828989	      0.35018226	      0.92882779	      0.70018979	     38.41541580	    -49.84250658	    -31.58385721	     39.07763476	      0.68203339	    -19.18821828	      0.00000000	      0.00000000	     39.73624557	    -49.70616017	    -28.99007539	     42.34452464	      0.73905138	    -15.43226098	      0.00000000	      0.00000000	    -78.66955101	     -4.66234688	      2.13447082	      0.00000000	    -15.00000017	      0.00000000	     75.00017585	     45.00000026	      0.00000000	      0.00000000	      0.00000000	    -15.00000017	      0.00000000	     75.00017585	     45.00000026	      0.00000000	      0.00000000
      9.90500000	    -89.69414766	     89.90412077	    -89.69337451	      0.35044602	      0.92879052	      0.69982473	     38.49172831	    -49.84643136	    -31.49349120	     39.09896933	      0.68240575	    -19.17925642	      0.00000000	      0.00000000	     39.83897221	    -49.71250438	    -28.84625357	     42.42422336	      0.74044238	    -15.36294171	      0.00000000	      0.00000000	    -78.60906964	     -4.62114602	      2.09023156	      0.00000000	    -15.00000017	      0.00000000	     75.00017585	     45.00000026	      0.00000000	      0.00000000	      0.00000000	    -15.00000017	      0.00000000	     75.00017585	     45.00000026	      0.00000000	      0.00000000
